<?xml version="1.0" encoding="UTF-8"?>
<!DOCTYPE svg PUBLIC "-//W3C//DTD SVG 1.1//EN" "http://www.w3.org/Graphics/SVG/1.1/DTD/svg11.dtd">
<!-- Creator: CorelDRAW 2019 (64-Bit Evaluation Version) -->
<svg xmlns="http://www.w3.org/2000/svg" xml:space="preserve" width="72.4375mm" height="93.8399mm" version="1.1" style="shape-rendering:geometricPrecision; text-rendering:geometricPrecision; image-rendering:optimizeQuality; fill-rule:evenodd; clip-rule:evenodd"
viewBox="0 0 735.21 952.44"
 xmlns:xlink="http://www.w3.org/1999/xlink"
 xmlns:xodm="http://www.corel.com/coreldraw/odm/2003">
 <defs>
  <style type="text/css">
   <![CDATA[
    .fil0 {fill:#FEFEFE;fill-rule:nonzero}
   ]]>
  </style>
 </defs>
 <g id="Layer_x0020_1">
  <metadata id="CorelCorpID_0Corel-Layer"/>
  <path class="fil0" d="M269.65 250.66c-75.14,-48.25 -93.99,-3.65 -75.99,101.73 -30.03,-14.09 -42.89,-51.07 -38.61,-110.93 -53.02,42.19 -93.45,89.98 -117.06,145.24l44.13 6.13c-46.61,58.46 -78.01,123.35 -82.13,199.79 23.71,2.46 47.6,-9.19 68.03,-26.35 -18.54,91.8 -10.87,181.94 24.52,262.3 49.19,-39.52 88.08,-85.91 117.66,-138.5 22.91,72.9 24.9,147.71 -6.13,225.53 106.73,53.98 213.47,50.91 320.21,-24.21 8.33,16.59 11.89,35.3 12.87,55.16 80.9,-53.49 132.78,-129.75 143.4,-237.17 15.4,-1.04 24.24,11.64 30.64,29.42 47.13,-135.54 22.95,-258.11 -55.76,-370.77 -0.33,8.69 -2.12,16.23 -6.13,22.06 -12.26,-8.67 -20.62,-19.52 -26.35,-31.87 21.56,-1.97 -5.37,-68.52 -27.57,-19.91l-40.45 -24.82c19.52,30.63 46.13,58.15 77.83,86.41 -39.29,-6.67 -74.29,-4.77 -105.41,4.9 -13.31,-23.85 -31.63,-43.15 -53.92,-58.83 1.33,-14.43 7.44,-27.66 15.32,-40.45 -13.05,10.93 -26.47,20.26 -41.98,20.53 -47.92,-34.38 -81.48,-28.23 -117.97,0.31 20.28,25.3 57.02,29.04 110,25.74 24.46,15.03 44.08,33.79 57.91,57l-4.29 4.9 -19.61 -6.13 -113.99 -0.62c-26.09,-6.67 -46.64,-20.08 -53.93,-49.64l-9.5 1.53 4.91 -21.45 -38.61 -3.68 68.33 -47.5 -23.29 -7.35c10.95,-24.11 94.96,-67.36 123.73,-55.53 21.13,8.71 57.74,27.72 82.79,50.01 7.4,-13.5 11.3,-29.56 12.16,-47.97 36.4,21.51 70.85,50.79 104.79,82.12 -11.73,-25.5 -22.23,-51.42 -21.64,-81.03 -37.89,-26.78 -77.53,-46.56 -119.5,-57 7.54,13.89 6.55,27.99 4.29,41.06 -12.72,-22.6 -39.41,-40.51 -62.77,-50.04 -83.93,-1.79 -145.79,13.51 -211.78,42.68 27.14,5.54 43.33,22.04 50.86,47.19zm267.19 189.38c12.01,13.13 26.61,21.39 42.28,27.58l-0.61 47.8c-28.71,31.67 -61.21,55.41 -98.67,67.41 -8.66,2.78 -18.82,0.64 -23.29,-7.35l-40.44 -72.31c-2.82,-5.04 2.11,-12.11 7.96,-15.33l87.03 -47.8c8.09,-4.44 19.47,-6.85 25.74,0zm-54.23 179.73c33.9,-7.69 60.78,-21.01 84.57,-44.13l41.68 -2.45c44.84,18.84 8.09,118.34 -35.24,124.4 6.7,-18.98 7.51,-39.23 2.76,-60.66 -19.15,21.06 -41.92,33.47 -69.25,34.93l-24.52 -52.09zm128.7 -151.07l34.93 -27.58c24.45,39.83 20.7,84.17 4.29,130.54l-40.86 -51.83 1.64 -51.13zm-469.13 -384.13c25.5,34.09 44.36,69.28 50.25,106.64 87.77,-55.08 196.17,-67.28 324.8,-37.38 -0.92,-36.74 8.08,-74.38 25.13,-112.76l-64.35 66.8 -3.67 -107.86 -79.67 96.83 -57.61 -92.54 -23.29 70.48 -5.51 38 -106.63 -72.32 15.32 90.09 -74.77 -45.97z"/>
 </g>
</svg>
