<?xml version="1.0" encoding="UTF-8"?>
<!DOCTYPE svg PUBLIC "-//W3C//DTD SVG 1.1//EN" "http://www.w3.org/Graphics/SVG/1.1/DTD/svg11.dtd">
<!-- Creator: CorelDRAW 2019 (64-Bit Evaluation Version) -->
<svg xmlns="http://www.w3.org/2000/svg" xml:space="preserve" width="219.508mm" height="93.8399mm" version="1.1" style="shape-rendering:geometricPrecision; text-rendering:geometricPrecision; image-rendering:optimizeQuality; fill-rule:evenodd; clip-rule:evenodd"
viewBox="0 0 5110.68 2184.82"
 xmlns:xlink="http://www.w3.org/1999/xlink"
 xmlns:xodm="http://www.corel.com/coreldraw/odm/2003">
 <defs>
  <style type="text/css">
   <![CDATA[
    .fil0 {fill:#3E2641;fill-rule:nonzero}
   ]]>
  </style>
 </defs>
 <g id="Layer_x0020_1">
  <metadata id="CorelCorpID_0Corel-Layer"/>
  <path class="fil0" d="M1971.64 404.41l0 706.12 161.51 0 0 -247.73 98.56 0c49.3,0 122.71,-5.29 178.28,-62.46 26.23,-27.52 59.79,-77.27 59.79,-166.21 0,-48.69 -8.41,-118.56 -68.17,-171.51 -55.59,-49.74 -122.71,-58.21 -183.52,-58.21l-246.45 0zm2812.76 1180.49c3.97,-21.17 13.93,-38.11 24.86,-50.81 13.94,-14.82 35.83,-30.69 72.63,-30.69 28.84,0 51.73,10.57 67.64,26.46 20.89,21.17 27.84,50.82 28.84,55.05l-193.97 0zm326.27 75.16c0,-58.23 -9.95,-132.33 -62.68,-191.62 -54.71,-61.4 -126.32,-70.92 -176.07,-70.92 -49.74,0 -116.38,10.59 -170.08,67.75 -44.79,48.7 -67.65,118.57 -67.65,186.32 0,78.35 27.85,140.79 66.64,182.09 51.73,55.04 110.42,67.74 177.07,67.74 49.73,0 97.49,-7.4 140.26,-34.92 18.15,-11.9 43.16,-32.65 63.33,-67.02l-74.24 -81.48c-40.35,54.59 -69.01,68.05 -127.38,68.05 -21.87,0 -51.82,-4.16 -73.6,-29.64 -18.02,-21.09 -26.87,-55.04 -26.87,-80.46l331.25 0 0 -15.88zm-2497.62 -75.16c3.97,-21.17 13.93,-38.11 24.86,-50.81 13.94,-14.82 35.82,-30.69 72.63,-30.69 28.84,0 51.71,10.57 67.64,26.46 20.88,21.17 27.85,50.82 28.85,55.05l-193.97 0zm326.25 75.16c0,-58.23 -9.93,-132.33 -62.67,-191.62 -54.71,-61.4 -126.32,-70.92 -176.06,-70.92 -49.72,0 -116.37,10.59 -170.08,67.75 -44.78,48.7 -67.64,118.57 -67.64,186.32 0,78.35 27.84,140.79 66.63,182.09 51.71,55.04 110.4,67.74 177.07,67.74 49.73,0 97.49,-7.4 140.25,-34.92 18.16,-11.9 43.17,-32.65 63.33,-67.02l-74.23 -81.48c-40.34,54.59 -69.01,68.05 -127.37,68.05 -21.88,0 -51.82,-4.16 -73.6,-29.64 -18.03,-21.09 -26.87,-55.04 -26.87,-80.46l331.24 0 0 -15.88zm1191.67 -235.63l0 287.7c0,52.41 7.8,100.54 47.73,143.31 49.68,53.47 121.76,62.03 175.32,62.03 51.63,0 124.68,-8.56 174.36,-62.03 43.84,-47.06 48.72,-98.4 48.72,-152.94l0 -278.08 -140.26 0 0 263.09c0,23.54 -2.93,55.62 -23.38,77.02 -12.67,12.83 -33.12,22.46 -59.43,22.46 -31.17,0 -48.7,-12.84 -58.42,-22.46 -22.43,-22.46 -24.37,-55.62 -24.37,-77.02l0 -263.09 -140.26 0zm-195.08 55.62c-17.11,-25.67 -55.61,-71.65 -142.23,-71.65 -88.77,0 -144.4,38.5 -173.25,68.45 -40.66,41.71 -70.6,109.09 -70.6,190.36 0,82.35 31.01,140.11 69.53,179.68 43.85,43.85 100.52,67.38 174.32,67.38 87.69,0 124.06,-41.71 142.23,-71.65l0 54.54c0,134.9 -226.28,143.73 -289.98,39.48l-77.97 109.34c176.4,151.19 495.25,105.21 495.25,-173.41l0 -448.13 -127.3 0 0 55.62zm-124.69 57.27c27.79,0 61.18,9.38 83.41,29.96 20.55,19 36.35,50.26 36.35,87.7 0,35.28 -13.79,68.55 -37.42,90.9 -15.94,15.08 -42.79,31.02 -83.42,31.02 -36.36,0 -65.25,-11.77 -86.62,-34.23 -21.4,-22.46 -33.16,-54.53 -33.16,-85.56 0,-28.87 12.78,-66.37 36.36,-88.77 19.19,-18.24 50.26,-31.02 84.51,-31.02zm-442.22 -59.41c-42.16,-59.89 -104.92,-69.51 -144,-69.51 -63.78,0 -119.31,23.52 -159.42,65.23 -42.16,43.86 -70.98,112.31 -70.98,192.52 0,63.09 18.54,125.14 66.85,178.6 50.42,55.62 105.97,72.73 171.77,72.73 38.07,0 95.67,-9.62 135.78,-73.79l0 57.75 135.47 0 0 -477 -135.47 0 0 53.48zm-125.24 63.1c26.74,0 59.64,10.7 82.28,33.15 21.58,21.4 33.93,53.48 33.93,87.7 0,40.64 -16.71,70.32 -35.99,89.84 -19.8,20.06 -47.3,33.15 -77.13,33.15 -34.97,0 -66.96,-14.88 -87.43,-37.43 -13.47,-14.88 -30.84,-42.77 -30.84,-85.56 0,-42.77 18.49,-70.59 33.92,-86.64 19.55,-20.32 49.39,-34.22 81.27,-34.22zm-1271.6 -352.95l0 713.36 452.16 0 0 -139.03 -287.47 0 0 -574.33 -164.69 0zm2481.97 -369.77c3.97,-21.17 13.94,-38.11 24.86,-50.81 13.94,-14.82 35.83,-30.7 72.62,-30.7 28.84,0 51.72,10.59 67.64,26.47 20.89,21.18 27.84,50.82 28.85,55.05l-193.98 0zm326.27 75.16c0,-58.21 -9.95,-132.32 -62.67,-191.61 -54.71,-61.4 -126.31,-70.93 -176.07,-70.93 -49.73,0 -116.37,10.59 -170.08,67.76 -44.79,48.7 -67.65,118.57 -67.65,186.32 0,78.33 27.85,140.79 66.64,182.08 51.73,55.05 110.42,67.75 177.07,67.75 49.73,0 97.49,-7.41 140.26,-34.93 18.16,-11.89 43.17,-32.63 63.34,-67.02l-74.25 -81.5c-40.33,54.6 -69,68.06 -127.34,68.06 -21.9,0 -51.83,-4.14 -73.62,-29.64 -18.01,-21.08 -26.86,-55.05 -26.86,-80.45l331.24 0 0 -15.89zm49.64 225.5l123.9 0 0 -191.61c0,-40.24 2.54,-91.1 30.11,-127.03 29.89,-38.92 84.95,-57.26 126.33,-41.68l-1.54 -116.06c-13.77,-5.3 -24.95,-7.42 -40.44,-7.42 -24.1,0 -45.6,4.23 -66.26,20.11 -19.79,14.82 -37.01,39.17 -48.19,65.64l0 -74.11 -123.9 0 0 472.16zm-650.78 -699.11c38.06,0 68.89,30.85 68.89,68.89 0,38.04 -30.84,68.88 -68.89,68.88 -38.04,0 -68.87,-30.85 -68.87,-68.88 0,-38.04 30.83,-68.89 68.87,-68.89zm-3560.69 155.13c-172.38,-110.67 -215.62,-8.37 -174.32,233.36 -68.9,-32.33 -98.39,-117.16 -88.56,-254.45 -121.63,96.78 -214.36,206.41 -268.52,333.18l101.23 14.05c-106.92,134.11 -178.95,282.96 -188.39,458.29 54.38,5.63 109.2,-21.09 156.05,-60.45 -42.52,210.59 -24.93,417.36 56.25,601.69 112.83,-90.66 202.04,-197.06 269.91,-317.71 52.55,167.24 57.13,338.84 -14.05,517.34 244.84,123.84 489.68,116.78 734.53,-55.53 19.12,38.05 27.28,80.97 29.52,126.52 185.58,-122.71 304.59,-297.63 328.96,-544.05 35.32,-2.38 55.59,26.71 70.28,67.48 108.12,-310.93 52.64,-592.09 -127.91,-850.52 -0.75,19.93 -4.87,37.23 -14.06,50.6 -28.11,-19.88 -47.31,-44.77 -60.44,-73.11 49.45,-4.52 -12.32,-157.18 -63.25,-45.67l-92.78 -56.93c44.77,70.27 105.81,133.39 178.53,198.22 -90.13,-15.31 -170.41,-10.94 -241.8,11.25 -30.52,-54.72 -72.57,-98.98 -123.69,-134.95 3.05,-33.1 17.07,-63.44 35.14,-92.79 -29.94,25.07 -60.73,46.47 -96.31,47.09 -109.92,-78.87 -186.92,-64.75 -270.61,0.7 46.53,58.04 130.81,66.62 252.33,59.05 56.12,34.48 101.11,77.52 132.85,130.75l-9.84 11.24 -44.99 -14.05 -261.47 -1.41c-59.85,-15.29 -106.98,-46.07 -123.71,-113.87l-21.79 3.51 11.25 -49.21 -88.57 -8.43 156.74 -108.95 -53.42 -16.87c25.12,-55.3 217.84,-154.53 283.83,-127.38 48.48,19.97 132.44,63.58 189.91,114.72 16.98,-30.96 25.92,-67.81 27.89,-110.04 83.49,49.34 162.53,116.51 240.38,188.37 -26.91,-58.49 -50.98,-117.95 -49.65,-185.87 -86.92,-61.44 -177.85,-106.81 -274.13,-130.75 17.29,31.87 15.03,64.21 9.83,94.19 -29.19,-51.83 -90.41,-92.93 -143.99,-114.78 -192.54,-4.11 -334.42,30.99 -485.82,97.91 62.26,12.72 99.4,50.56 116.67,108.26zm612.91 434.43c27.55,30.13 61.03,49.07 97,63.27l-1.39 109.65c-65.85,72.64 -140.41,127.1 -226.34,154.63 -19.86,6.37 -43.17,1.46 -53.42,-16.87l-92.77 -165.88c-6.46,-11.57 4.84,-27.77 18.25,-35.16l199.64 -109.64c18.55,-10.19 44.66,-15.72 59.03,0zm-124.39 412.28c77.77,-17.64 139.43,-48.2 194,-101.22l95.6 -5.62c102.87,43.22 18.56,271.46 -80.83,285.37 15.38,-43.55 17.22,-89.99 6.32,-139.16 -43.93,48.32 -96.16,76.78 -158.84,80.12l-56.24 -119.49zm295.24 -346.54l80.12 -63.27c56.09,91.36 47.49,193.07 9.85,299.44l-93.73 -118.89 3.76 -117.28zm-1076.16 -881.15c58.5,78.2 101.76,158.93 115.28,244.61 201.35,-126.35 450,-154.34 745.07,-85.75 -2.12,-84.28 18.53,-170.63 57.64,-258.66l-147.62 153.24 -8.42 -247.43 -182.75 222.11 -132.15 -212.27 -53.42 161.67 -12.65 87.16 -244.6 -165.89 35.14 206.66 -171.51 -105.44zm3791.66 452.8l0 472.16 122.87 0 0 -472.16 -122.87 0zm-765.71 472.16l136.82 0 0 -241.37c0,-15.88 0.94,-68.82 26.59,-96.34 13.31,-13.75 29.47,-19.06 47.51,-19.06 14.25,0 31.36,3.19 45.61,19.06 20.91,23.29 21.86,60.35 21.86,92.11l0 245.6 136.82 0 0 -235.01c0,-30.71 2.84,-67.76 20.9,-93.17 11.39,-16.93 30.41,-28.59 53.21,-28.59 19.95,0 38.01,9.54 49.41,25.42 18.04,25.4 18.04,67.75 18.04,92.1l0 239.25 136.83 0 0 -298.53c0,-33.88 -2.86,-97.4 -43.72,-140.81 -25.64,-27.52 -67.45,-44.46 -118.77,-44.46 -33.24,0 -60.8,6.35 -90.24,26.47 -27.55,19.05 -43.73,41.29 -54.16,60.35 -11.4,-28.59 -29.45,-51.88 -51.32,-65.64 -28.49,-19.05 -61.74,-21.17 -79.8,-21.17 -32.31,0 -83.61,7.42 -118.77,66.69l0 -55.05 -136.82 0 0 472.16zm-384.8 -300.66c3.99,-21.17 13.92,-38.11 24.88,-50.81 13.91,-14.82 35.81,-30.7 72.61,-30.7 28.84,0 51.74,10.59 67.65,26.47 20.89,21.18 27.86,50.82 28.84,55.05l-193.97 0zm326.28 75.16c0,-58.21 -9.96,-132.32 -62.66,-191.61 -54.72,-61.4 -126.34,-70.93 -176.07,-70.93 -49.75,0 -116.4,10.59 -170.1,67.76 -44.76,48.7 -67.65,118.57 -67.65,186.32 0,78.33 27.85,140.79 66.65,182.08 51.73,55.05 110.42,67.75 177.06,67.75 49.74,0 97.48,-7.41 140.27,-34.93 18.13,-11.89 43.16,-32.63 63.34,-67.02l-74.25 -81.5c-40.33,54.6 -68.98,68.06 -127.35,68.06 -21.88,0 -51.83,-4.14 -73.61,-29.64 -18.02,-21.08 -26.86,-55.05 -26.86,-80.45l331.25 0 0 -15.89zm-776.46 225.5l123.91 0 0 -191.61c0,-40.24 2.52,-91.1 30.11,-127.03 29.88,-38.92 84.96,-57.26 126.33,-41.68l-1.55 -116.06c-13.77,-5.3 -24.96,-7.42 -40.44,-7.42 -24.12,0 -45.6,4.23 -66.26,20.11 -19.8,14.82 -37,39.17 -48.19,65.64l0 -74.11 -123.91 0 0 472.16zm-383.98 -581.16l54.52 0c31.47,0 66.06,3.19 90.19,26.48 15.73,14.81 26.22,39.17 26.22,68.81 0,30.7 -11.52,55.05 -26.22,69.86 -26.21,25.42 -65.01,26.47 -87.03,26.47l-57.68 0 0 -191.62z"/>
 </g>
</svg>
