<?xml version="1.0" encoding="UTF-8"?>
<!DOCTYPE svg PUBLIC "-//W3C//DTD SVG 1.1//EN" "http://www.w3.org/Graphics/SVG/1.1/DTD/svg11.dtd">
<!-- Creator: CorelDRAW 2019 (64-Bit Evaluation Version) -->
<svg xmlns="http://www.w3.org/2000/svg" xml:space="preserve" width="72.4375mm" height="93.8399mm" version="1.1" style="shape-rendering:geometricPrecision; text-rendering:geometricPrecision; image-rendering:optimizeQuality; fill-rule:evenodd; clip-rule:evenodd"
viewBox="0 0 566.73 734.18"
 xmlns:xlink="http://www.w3.org/1999/xlink"
 xmlns:xodm="http://www.corel.com/coreldraw/odm/2003">
 <defs>
  <style type="text/css">
   <![CDATA[
    .fil0 {fill:#3E2641;fill-rule:nonzero}
   ]]>
  </style>
 </defs>
 <g id="Layer_x0020_1">
  <metadata id="CorelCorpID_0Corel-Layer"/>
  <path class="fil0" d="M207.86 193.21c-57.92,-37.19 -72.45,-2.81 -58.58,78.42 -23.15,-10.86 -33.06,-39.37 -29.76,-85.51 -40.87,32.52 -72.03,69.36 -90.23,111.96l34.02 4.72c-35.93,45.07 -60.13,95.09 -63.31,154 18.27,1.89 36.7,-7.09 52.44,-20.31 -14.29,70.76 -8.38,140.25 18.9,202.19 37.91,-30.46 67.89,-66.22 90.7,-106.76 17.66,56.2 19.2,113.86 -4.72,173.84 82.27,41.61 164.55,39.24 246.83,-18.66 6.42,12.78 9.17,27.21 9.92,42.52 62.36,-41.24 102.35,-100.02 110.54,-182.82 11.87,-0.8 18.68,8.98 23.62,22.68 36.33,-104.48 17.69,-198.96 -42.98,-285.8 -0.25,6.7 -1.64,12.51 -4.73,17 -9.45,-6.68 -15.9,-15.04 -20.31,-24.57 16.62,-1.52 -4.14,-52.82 -21.26,-15.35l-31.18 -19.13c15.05,23.61 35.56,44.82 59.99,66.61 -30.29,-5.14 -57.26,-3.68 -81.25,3.78 -10.26,-18.39 -24.38,-33.26 -41.57,-45.35 1.02,-11.12 5.74,-21.32 11.81,-31.18 -10.06,8.42 -20.41,15.61 -32.36,15.83 -36.94,-26.5 -62.81,-21.76 -90.93,0.24 15.64,19.5 43.96,22.39 84.79,19.84 18.86,11.59 33.98,26.05 44.64,43.94l-3.31 3.78 -15.12 -4.72 -87.86 -0.47c-20.11,-5.14 -35.95,-15.48 -41.57,-38.26l-7.32 1.18 3.78 -16.54 -29.76 -2.83 52.67 -36.61 -17.95 -5.67c8.44,-18.58 73.2,-51.93 95.38,-42.8 16.29,6.71 44.51,21.36 63.81,38.55 5.7,-10.4 8.71,-22.79 9.37,-36.98 28.06,16.58 54.61,39.15 80.78,63.3 -9.04,-19.66 -17.13,-39.64 -16.68,-62.46 -29.21,-20.65 -59.76,-35.89 -92.12,-43.94 5.81,10.71 5.05,21.58 3.3,31.65 -9.81,-17.42 -30.38,-31.23 -48.38,-38.57 -64.7,-1.38 -112.38,10.41 -163.25,32.9 20.92,4.27 33.4,16.99 39.21,36.38zm205.96 145.98c9.26,10.12 20.51,16.49 32.59,21.26l-0.47 36.85c-22.13,24.41 -47.18,42.71 -76.06,51.96 -6.67,2.14 -14.51,0.49 -17.95,-5.67l-31.17 -55.74c-2.17,-3.89 1.62,-9.33 6.13,-11.82l67.09 -36.84c6.23,-3.42 15.01,-5.28 19.84,0zm-41.8 138.54c26.14,-5.93 46.85,-16.2 65.19,-34.02l32.13 -1.89c34.57,14.52 6.24,91.22 -27.16,95.89 5.17,-14.63 5.79,-30.24 2.12,-46.76 -14.76,16.24 -32.31,25.8 -53.38,26.92l-18.9 -40.15zm99.21 -116.45l26.92 -21.26c18.85,30.7 15.96,64.88 3.31,100.62l-31.5 -39.95 1.26 -39.41zm-361.63 -296.1c19.66,26.28 34.19,53.41 38.74,82.2 67.66,-42.46 151.22,-51.86 250.37,-28.82 -0.71,-28.32 6.23,-57.34 19.37,-86.92l-49.6 51.49 -2.83 -83.15 -61.41 74.64 -44.41 -71.33 -17.95 54.33 -4.25 29.29 -82.19 -55.75 11.81 69.44 -57.63 -35.43z"/>
 </g>
</svg>
